<svg width="265" height="151" viewBox="0 0 265 151" fill="none" xmlns="http://www.w3.org/2000/svg">
<path d="M133.173 0C111.305 0 93.5811 17.3848 93.5811 38.8349C93.5811 60.285 111.305 77.6698 133.173 77.6698C155.041 77.6698 172.765 60.285 172.765 38.8349C172.765 17.3848 155.041 0 133.173 0ZM159.201 39.2266C159.156 39.5149 159.065 39.8106 158.847 40.0397C158.545 40.3575 158.236 40.6754 157.92 40.9858C157.279 41.6215 156.631 42.2498 155.983 42.878C155.343 43.4989 154.702 44.1198 154.062 44.7481C153.609 45.1916 153.165 45.6351 152.713 46.0785C152.223 46.5664 151.726 47.0468 151.236 47.5347C150.731 48.0373 150.218 48.5325 149.714 49.0351C149.103 49.6339 148.493 50.2252 147.882 50.8239C147.227 51.4669 146.571 52.1174 145.908 52.7678C145.29 53.3739 144.672 53.9727 144.054 54.5714C143.436 55.1775 142.826 55.7836 142.208 56.3897C141.568 57.018 140.927 57.6388 140.294 58.2597C139.556 58.9841 138.825 59.7085 138.086 60.4328C137.438 61.0685 136.79 61.6894 136.149 62.325C135.509 62.9533 134.861 63.5594 134.251 64.2099C133.829 64.6534 133.324 64.9416 132.743 65.0303C131.786 65.1782 130.89 65.0008 130.189 64.2542C129.714 63.7516 129.209 63.2785 128.719 62.7907C128.252 62.325 127.777 61.8594 127.31 61.3937C126.775 60.8615 126.24 60.3441 125.705 59.8119C125.246 59.3537 124.793 58.8806 124.326 58.4223C123.61 57.7054 122.879 57.0032 122.163 56.2862C121.222 55.3549 120.287 54.4161 119.345 53.4848C118.471 52.6126 117.589 51.7552 116.708 50.883C115.773 49.9591 114.846 49.0278 113.92 48.1038C113.03 47.2242 112.134 46.3446 111.244 45.4651C110.355 44.5855 109.466 43.6911 108.577 42.8115C108.132 42.368 107.68 41.9245 107.228 41.4736C107.16 41.4071 107.055 41.348 107.138 41.1854H107.409C111.742 41.1854 116.075 41.1854 120.408 41.1854C120.581 41.1854 120.709 41.2223 120.837 41.3554C121.365 41.895 121.9 42.4124 122.442 42.9372C122.902 43.3807 123.369 43.8241 123.829 44.2676C124.175 44.6002 124.515 44.9476 124.854 45.2877C125.328 45.7607 125.803 46.2338 126.278 46.7068C126.933 47.3573 127.597 48.0003 128.252 48.6434C129.556 49.9221 130.86 51.2082 132.171 52.487C132.261 52.5757 132.374 52.6496 132.465 52.7161C132.902 52.62 133.15 52.3022 133.422 52.0287C134.929 50.5578 136.436 49.0795 137.943 47.6012C139.224 46.3446 140.513 45.0881 141.801 43.8315C142.856 42.7967 143.904 41.7619 144.959 40.7271C145.652 40.0471 146.345 39.3671 147.046 38.6797C147.046 38.6797 147.061 38.6649 147.069 38.6575C147.129 38.5836 147.257 38.5244 147.159 38.4136C147.069 38.3101 146.978 38.4062 146.895 38.4505C146.194 38.8645 145.494 39.2784 144.785 39.6923C143.986 40.158 143.18 40.6236 142.381 41.0893C141.794 41.4367 141.206 41.7915 140.618 42.1389C140.091 42.4493 139.556 42.7524 139.028 43.0628C138.395 43.4324 137.762 43.8168 137.129 44.1863C136.511 44.5485 135.893 44.9033 135.275 45.2655C134.778 45.5538 134.281 45.842 133.783 46.1229C133.384 46.352 132.939 46.3816 132.487 46.3446C132.118 46.3151 131.764 46.219 131.47 46.0046C131.221 45.8272 130.98 45.6203 130.762 45.4059C130.234 44.9107 129.722 44.4007 129.202 43.8981C128.719 43.4324 128.237 42.9667 127.747 42.4937C127.242 42.0058 126.738 41.518 126.233 41.0302C125.916 40.7271 125.585 40.4314 125.283 40.1062C125.042 39.8475 124.921 39.5149 124.824 39.1749C124.628 38.4801 124.575 37.7779 124.876 37.1053C125.019 36.7874 125.223 36.4992 125.411 36.2035C125.788 35.6048 126.172 35.0061 126.557 34.4074C126.903 33.8678 127.25 33.3356 127.597 32.796C127.891 32.3452 128.177 31.8869 128.471 31.436C129.028 30.5564 129.586 29.6842 130.144 28.8046C130.829 27.7255 131.523 26.6463 132.208 25.5746C132.404 25.2641 132.608 24.9537 132.804 24.6358C132.894 24.488 132.969 24.3402 132.864 24.1628C132.691 24.1554 132.57 24.2441 132.465 24.3476C132.005 24.8132 131.553 25.2789 131.093 25.7446C130.505 26.3359 129.918 26.9272 129.33 27.5185C128.81 28.0433 128.29 28.5755 127.762 29.1003C127.16 29.7064 126.557 30.3125 125.961 30.9186C124.974 31.9165 123.987 32.9217 123 33.9195C122.322 34.607 121.644 35.287 120.965 35.967C120.845 36.0926 120.717 36.1444 120.536 36.1444C120.016 36.1296 119.503 36.1444 118.983 36.1444C117.393 36.1296 115.803 36.1074 114.206 36.0853C112.947 36.0705 111.689 36.0483 110.438 36.0261C109.534 36.0113 108.637 35.9892 107.733 35.967C107.642 35.967 107.552 35.9374 107.394 35.9152C107.499 35.797 107.56 35.7379 107.62 35.6787C108.388 34.9174 109.157 34.1487 109.933 33.3948C110.838 32.5078 111.749 31.6356 112.646 30.7486C113.686 29.7286 114.718 28.7012 115.758 27.6811C116.504 26.9494 117.258 26.225 118.004 25.4932C118.923 24.5915 119.835 23.6897 120.754 22.788C121.628 21.9306 122.51 21.0731 123.384 20.2231C124.56 19.07 125.743 17.9244 126.918 16.7713C127.469 16.2317 128.026 15.6995 128.576 15.1599C129.043 14.6943 129.503 14.2212 129.978 13.763C130.249 13.4969 130.52 13.2234 130.837 13.0164C131.266 12.7281 131.756 12.5655 132.291 12.5877C132.442 12.5877 132.593 12.5877 132.751 12.5877C132.954 12.5877 133.143 12.6173 133.339 12.6838C133.67 12.7947 133.957 12.9499 134.205 13.2012C134.823 13.8443 135.456 14.4725 136.082 15.1082C136.511 15.5443 136.933 15.9878 137.363 16.4239C138.516 17.5991 139.669 18.767 140.829 19.9422C141.417 20.5336 141.974 21.1544 142.592 21.7162C143.489 22.5219 143.753 23.5419 143.723 24.6802C143.708 25.1754 143.602 25.6485 143.323 26.0698C143.12 26.3654 142.871 26.6315 142.645 26.905C141.635 28.1098 140.618 29.3073 139.608 30.5121C138.99 31.2512 138.388 31.9978 137.77 32.7295C136.896 33.7717 136.014 34.8065 135.14 35.8561C135.042 35.967 134.966 36.1 134.906 36.2331C134.876 36.2922 134.906 36.3735 134.906 36.4474C134.981 36.4327 135.072 36.4474 135.125 36.4031C135.313 36.27 135.486 36.1148 135.66 35.967C136.24 35.4865 136.82 35.0061 137.408 34.5256C138.207 33.8678 139.005 33.21 139.804 32.5595C140.528 31.9682 141.259 31.3843 141.982 30.7856C142.736 30.1647 143.482 29.5438 144.235 28.9229C144.499 28.7085 144.763 28.4942 145.034 28.2872C145.441 27.9768 145.938 27.9103 146.428 27.8142C146.767 27.755 147.114 27.6811 147.445 27.7107C147.875 27.7477 148.297 27.8733 148.719 27.9694C149.035 28.0433 149.299 28.2059 149.525 28.4277C150.007 28.8859 150.475 29.3516 150.949 29.8173C151.394 30.2534 151.846 30.6821 152.291 31.1108C152.999 31.7982 153.707 32.4782 154.408 33.1656C155.328 34.0526 156.247 34.9322 157.159 35.8192C157.694 36.3366 158.229 36.854 158.756 37.3788C158.847 37.4675 158.93 37.5783 158.975 37.6966C159.186 38.1918 159.306 38.7018 159.223 39.234L159.201 39.2266Z" fill="#29668E"/>
<path d="M92.4482 97.0518H110.616C115.583 97.0518 119.604 98.4686 122.053 100.871C123.877 102.661 124.883 104.939 124.883 107.656V107.78C124.883 113.637 120.988 116.595 117.4 118.012C122.679 119.37 127.332 122.328 127.332 128.31V128.434C127.332 135.649 121.048 140.207 111.554 140.207H92.4482V97.0518ZM110.237 116.968C116.834 116.968 121.554 113.82 121.554 108.087V107.963C121.554 103.216 117.593 100.01 110.557 100.01H95.7244V116.968H110.244H110.237ZM111.681 137.249C119.224 137.249 124.004 133.86 124.004 128.434V128.31C124.004 123.007 119.291 119.925 110.616 119.925H95.717V137.249H111.681Z" fill="#29668E"/>
<path d="M131.793 108.767H134.876V117.706C137.393 112.097 142.732 108.029 149.083 108.27V111.601H148.77C141.354 111.601 134.876 117.085 134.876 127.325V140.207H131.793V108.767Z" fill="#29668E"/>
<path d="M149.395 124.613V124.489C149.395 115.674 156.372 108.028 165.925 108.028C175.478 108.028 182.328 115.55 182.328 124.365V124.489C182.328 133.304 175.352 140.951 165.798 140.951C156.245 140.951 149.395 133.428 149.395 124.613ZM179 124.613V124.489C179 116.909 173.215 110.861 165.798 110.861C158.382 110.861 152.723 116.967 152.723 124.365V124.489C152.723 132.07 158.509 138.117 165.925 138.117C173.341 138.117 179 132.012 179 124.613Z" fill="#29668E"/>
<path d="M186.483 95.2036H189.566V128.93L209.432 108.766H213.52L199.499 122.7L213.959 140.213H210.065L197.369 124.862L189.573 132.567V140.213H186.491V95.2036H186.483Z" fill="#29668E"/>
<path d="M214.145 124.555V124.431C214.145 115.309 220.683 108.028 229.357 108.028C238.032 108.028 244.063 115.178 244.063 124.489C244.063 125.044 244.063 125.227 243.996 125.724H217.407C217.972 133.553 223.691 138.117 229.975 138.117C234.942 138.117 238.337 135.963 240.973 133.187L243.11 135.035C239.841 138.49 236.006 140.951 229.849 140.951C221.427 140.951 214.13 134.356 214.13 124.548L214.145 124.555ZM240.735 123.014C240.295 116.66 236.587 110.803 229.231 110.803C222.879 110.803 217.98 116.047 217.414 123.014H240.735Z" fill="#29668E"/>
<path d="M247.711 108.767H250.794V117.706C253.31 112.097 258.649 108.029 265 108.27V111.601H264.688C257.271 111.601 250.794 117.085 250.794 127.325V140.207H247.711V108.767Z" fill="#29668E"/>
<path d="M0 93.4277H8.91277L23.4025 115.505L37.8923 93.4277H46.8051V140.125H38.4433V106.632L23.41 128.644H23.1345L8.24263 106.763V140.117H0.0148893V93.4277H0Z" fill="#29668E"/>
<path d="M51.1382 148.86L53.9304 142.857C55.427 143.661 57.0577 144.194 58.7628 144.194C61.0785 144.194 62.5007 143.193 63.8633 140.126L48.897 104.902H57.6683L67.8692 131.055L77.184 104.902H85.7543L71.473 141.126C68.6138 148.335 65.4195 151 59.6414 151C56.1716 151 53.6549 150.197 51.1382 148.868V148.86Z" fill="#29668E"/>
</svg>
