<?xml version="1.0" encoding="UTF-8"?>
<!DOCTYPE svg PUBLIC "-//W3C//DTD SVG 1.1//EN" "http://www.w3.org/Graphics/SVG/1.1/DTD/svg11.dtd">
<!-- Creator: CorelDRAW 2020 (64-Bit Evaluation Version) -->
<?xml-stylesheet href="LogoONE.css" type="text/css"?>
<svg xmlns="http://www.w3.org/2000/svg" xml:space="preserve" width="2311px" height="2311px" version="1.1" style="shape-rendering:geometricPrecision; text-rendering:geometricPrecision; image-rendering:optimizeQuality; fill-rule:evenodd; clip-rule:evenodd"
viewBox="0 0 2284.87 2284.87"
 xmlns:xlink="http://www.w3.org/1999/xlink"
 xmlns:xodm="http://www.corel.com/coreldraw/odm/2003">
 <g id="Layer_x0020_1">
  <metadata id="CorelCorpID_0Corel-Layer"/>
  <g id="_1801624469920">
   <circle class="fil0" cx="1142.44" cy="1142.43" r="1142.44"/>
   <path class="fil1" d="M284.12 1271.51l132.91 0 66.88 -117.27 -66.88 -116.39 -132.91 0 -66.01 116.39 66.01 117.27zm-41.69 106.84c-16.5,0 -28.66,-6.94 -36.48,-20.85l-103.36 -182.42c-7.82,-13.89 -7.82,-27.79 0,-41.68l103.36 -181.56c7.82,-13.89 19.98,-20.83 36.48,-20.83l216.29 0c16.5,0 28.67,6.94 36.48,20.83l103.37 181.56c7.82,13.89 7.82,27.79 0,41.68l-103.37 182.42c-7.81,13.91 -19.98,20.85 -36.48,20.85l-216.29 0z"/>
   <path class="fil1" d="M1376.12 1378.35c-16.51,0 -28.67,-6.94 -36.49,-20.85l-103.37 -182.41c-7.81,-13.89 -7.81,-27.8 0,-41.69l103.37 -181.56c7.82,-13.89 19.98,-20.83 36.49,-20.83l245.82 0c16.51,0 26.93,6.94 36.47,22.58l37.36 64.28c7.82,13.89 7.82,27.79 0,41.69l-53 95.55c-8.67,16.5 -20.83,30.41 -39.95,30.41l-65.14 0c-19.11,0 -29.54,-15.65 -20.85,-30.41l62.53 -108.57 -5.2 -9.57 -156.35 0 -66.01 117.27 66.01 118.14 235.39 0c19.12,0 30.41,11.3 30.41,30.4l0 45.18c0,19.11 -11.29,30.39 -30.41,30.39l-277.08 0z"/>
   <path class="fil1" d="M1092.02 953.59c-11.29,-12.16 -19.98,-22.58 -36.48,-22.58l-150.27 0c-16.51,0 -26.06,6.94 -36.49,19.1l-26.92 31.27c-2.61,3.48 -6.09,4.35 -10.43,4.35l-13.02 0c-5.23,0 -8.7,-3.48 -8.7,-8.69l0 70.35c0,-5.19 3.47,-8.66 8.7,-8.66l207.6 0 0 309.22c0,19.12 11.29,30.4 30.39,30.4l56.47 0c19.11,0 30.4,-11.28 30.4,-30.4l0 -317.04c0,-14.78 -4.34,-26.07 -14.76,-37.37l-36.49 -39.95z"/>
   <path class="fil2" d="M810.2 1047.4l0 -70.36 0 -15.63c0,-19.11 -11.33,-30.4 -30.52,-30.4l-57.58 0c-19.19,0 -30.52,11.29 -30.52,30.4l0 386.55c0,19.1 11.33,30.39 30.52,30.39l57.58 0c19.19,0 30.52,-11.29 30.52,-30.39l0 -300.56z"/>
   <path class="fil2" d="M2057.22 1332.77l0 -70.36 0 -15.63c0,-19.12 -11.34,-30.4 -30.52,-30.4l-57.58 0c-19.19,0 -30.53,11.28 -30.53,30.4l0 101.18c0,19.11 11.34,30.39 30.53,30.39l57.58 0c19.18,0 30.52,-11.28 30.52,-30.39l0 -15.19z"/>
   <path class="fil2" d="M2057.22 1046.76l0 -70.36 0 -15.63c0,-19.11 -11.34,-30.4 -30.52,-30.4l-57.58 0c-19.19,0 -30.53,11.29 -30.53,30.4l0 101.18c0,19.1 11.34,30.4 30.53,30.4l57.58 0c19.18,0 30.52,-11.3 30.52,-30.4l0 -15.19z"/>
   <path class="fil2" d="M1819.51 1213.67l70.35 0 15.63 0c19.12,0 30.41,-11.34 30.41,-30.52l0 -57.58c0,-19.19 -11.29,-30.52 -30.41,-30.52l-101.18 0c-19.1,0 -30.39,11.33 -30.39,30.52l0 57.58c0,19.18 11.29,30.52 30.39,30.52l15.2 0z"/>
   <path class="fil2" d="M2105.52 1213.67l70.35 0 15.63 0c19.11,0 30.41,-11.34 30.41,-30.52l0 -57.58c0,-19.19 -11.3,-30.52 -30.41,-30.52l-101.18 0c-19.1,0 -30.39,11.33 -30.39,30.52l0 57.58c0,19.18 11.29,30.52 30.39,30.52l15.2 0z"/>
  </g>
 </g>
</svg>
