<?xml version="1.0" encoding="UTF-8"?>
<!DOCTYPE svg PUBLIC "-//W3C//DTD SVG 1.1//EN" "http://www.w3.org/Graphics/SVG/1.1/DTD/svg11.dtd">
<!-- Creator: CorelDRAW 2020 (64-Bit Evaluation Version) -->
<svg xmlns="http://www.w3.org/2000/svg" xml:space="preserve" width="6.98794in" height="4.84574in" version="1.1" style="shape-rendering:geometricPrecision; text-rendering:geometricPrecision; image-rendering:optimizeQuality; fill-rule:evenodd; clip-rule:evenodd"
viewBox="0 0 6943.77 4815.11"
 xmlns:xlink="http://www.w3.org/1999/xlink"
 xmlns:xodm="http://www.corel.com/coreldraw/odm/2003">
 <defs>
  <style type="text/css">
   <![CDATA[
    .fil0 {fill:#FEFEFE}
    .fil1 {fill:#FEFEFE;fill-rule:nonzero}
   ]]>
  </style>
 </defs>
 <g id="Layer_x0020_1">
  <metadata id="CorelCorpID_0Corel-Layer"/>
  <path class="fil0" d="M3126.03 2397.13c33.78,-56.54 60.8,-132.35 82.31,-216.67 60.8,-196.4 92.32,-410.32 92.32,-635.25l-1375.83 -4.5 0 589.46 589.96 0c-129.6,303.74 -486.88,482.38 -844.16,482.38 -535.92,0 -964.51,-424.08 -964.51,-964.51 0,-535.92 428.59,-964.51 964.51,-964.51 247.45,0 469.37,87.82 637.25,236.93l282.97 -638.75c-263.71,-177.14 -580.46,-281.72 -920.22,-281.72 -906.71,0 -1648.04,741.33 -1648.04,1647.79 0,910.96 741.33,1652.29 1647.79,1652.29 706.55,0.25 1208.45,-361.53 1455.64,-902.96z"/>
  <path class="fil0" d="M3408.5 1944.27l730.57 0 -502.39 -1105.36 -259.71 571.45 -708.55 -2.25 613.48 -1350.06 709.81 0 1094.11 2407.63 1094.11 -2407.63 709.55 0 -1448.89 3188.5 -709.81 0 -323.75 -712.31 -1185.68 0 10.26 -19.02c94.08,-129.35 148.37,-354.53 176.89,-570.95z"/>
  <g>
   <path class="fil1" d="M2984.92 4136.49l1 0c3,0 8.51,5.5 16.51,16.51 7.26,9.51 11.01,16.26 11.01,19.77 0,0.75 -0.5,1.5 -1,2.25 -22.01,16.26 -47.04,35.78 -75.06,58.55l-145.61 127.85 -73.81 64.05c-61.05,52.29 -112.09,93.32 -153.37,123.6 -30.77,22.02 -58.8,40.03 -83.82,54.04 -19.01,11.01 -34.53,18.76 -46.28,23.27 -19.77,7.25 -37.78,11.76 -54.04,13.26l-2.25 -1 -1 1c-17.01,-0.75 -31.27,-2.5 -43.03,-5.5 -16.26,-4.51 -30.52,-11.76 -43.04,-22.02 -13.26,-11.01 -22.52,-25.02 -27.52,-41.78 -3.75,-13.26 -5.5,-28.27 -5.5,-45.28 1.5,-24.27 6.25,-49.79 14.26,-76.31 3,-11.01 6.51,-22.52 11.01,-34.28l12.26 -33.03c19.77,-49.29 43.28,-99.33 70.56,-150.12l1 -2.25c6.5,-12.51 14.01,-25.77 22.01,-39.78l2.25 -4.51c8.01,-16.01 14.26,-30.77 18.76,-44.03 4.51,-14.01 6.51,-25.77 6.51,-35.28l0 -6.51c-1.5,-9.51 -5.5,-16.26 -12.26,-19.76 -8,-3.76 -19.01,-7.51 -33.02,-11.01l-31.02 -10c-50.79,56.04 -607.47,706.8 -1436.37,755.59 -525.91,30.77 -881.44,-478.37 -902.71,-439.84 -3,5.25 0,-124.1 0,-124.1 272.96,313.74 611.23,537.42 927.47,510.39 806.13,-69.05 1319.79,-672.02 1365.32,-720.56 -22.77,-13.26 -39.03,-29.77 -48.54,-49.79 -8.01,-16.26 -12.26,-34.28 -12.26,-54.04 0,-8 0.75,-16.51 2.25,-25.27 3,-25.02 10.76,-48.79 23.27,-71.81 13.26,-24.27 30.77,-43.03 53.04,-56.3 20.52,-13.26 43.54,-20.52 68.31,-22.01l7.75 0 1 1c12.51,0.75 23.77,3 34.28,6.76 18.26,6.51 31.27,18.02 38.53,34.28 4.5,9.51 6.75,20.26 6.75,32.02 0,5.25 -0.5,10.26 -1.25,15.51 -1.51,13.26 -4.76,26.02 -10.01,38.53 -14.76,36.03 -40.53,77.56 -77.31,124.6l-5.5 6.76 26.27 8.76 17.76 5.5 5.5 2.25c11.01,5.25 20.52,10.76 28.77,16.51 12.51,8.76 22.02,19.77 28.77,33.03l6.76 14.26 1 1 2.25 7.76c0.75,2.25 1,4 1,5.5 0.75,3 1.25,6.26 1.25,10.01l-1.25 7.76c-0.75,8.76 -2,18.26 -3.25,28.77 -5.25,23.52 -14.01,46.29 -26.52,68.3 -5.25,9.51 -12.51,21.77 -22.02,36.53l-12.26 19.77 -14.26 22.01c-24.27,39.03 -44.03,72.81 -59.55,101.58 -11.76,22.77 -21.02,42.28 -27.52,58.55 -8.76,22.01 -14.26,42.28 -16.52,60.8 -0.75,3.75 -1,7.25 -1,11.01 0,16.01 4.5,28.77 13.26,37.53 11.01,10.25 29.52,15.51 55.29,15.51 11.01,-0.75 24.27,-4 39.78,-10.01 9.51,-3.75 23.27,-10.26 40.78,-19.77 22.77,-13.26 48.79,-30.52 78.31,-51.79 39.78,-28.77 89.82,-68.8 150.12,-120.34l74.06 -64.05 109.09 -96.07 37.53 -32.02c27.76,-23.77 53.54,-44.54 77.06,-62.05l0 0zm-659.77 -134.61l2.25 1 16.51 -18.77c33.77,-43.53 57.04,-81.06 69.55,-112.59 6.01,-14.01 8.76,-25.77 8.76,-35.28 0,-5.75 -1,-10.76 -3.25,-14.26 -1.5,-4.51 -5.5,-7.76 -12.26,-10.01 -6.5,-3 -15.01,-4.51 -25.27,-4.51 -36.03,3 -63.3,21.02 -81.56,54.04 -9.51,17.76 -15.51,36.03 -17.76,55.29 -0.75,6.76 -1,12.51 -1,17.76 0,13.26 2.25,24.52 6.5,34.28 6.51,13.01 19.02,24.02 37.53,33.03z"/>
  </g>
  <g>
   <path class="fil1" d="M3549.86 4146.25l1 0c2.25,0 7.26,5.5 15.51,16.51 7.26,10.26 11.01,17.26 11.01,21.02 0,0.75 -0.25,1 -1,1l-56.3 39.78 -55.29 43.03c-47.04,35.28 -85.32,62.55 -114.84,81.57 -45.53,29.52 -87.82,52.29 -126.85,68.3 -49.29,20.02 -96.32,30.27 -141.11,31.02l-3.25 1c-30.77,-0.75 -57.8,-5.26 -80.56,-13.26 -31.53,-11.01 -54.8,-32.78 -69.55,-65.05 -9.51,-19.76 -14.26,-41.53 -14.26,-65.05 0,-8.76 0.75,-17.51 2.25,-26.52 3,-28.02 11.01,-55.29 24.27,-81.56 26.52,-51.54 63.54,-92.07 111.34,-121.35 11.01,-6.51 23.77,-12.76 38.53,-18.76 9.51,-3 17.26,-5.01 23.02,-6.76l15.51 -1c5.25,-0.75 10.01,-1 14.26,-1l3.25 -0c19.77,0 33.78,7.51 41.78,23.02 4.51,8.76 6.76,20.27 6.76,34.28l0 14.26 -1.25 5.5 -1 1.25c-5.25,23.52 -15.51,43.04 -30.77,58.55 -18.26,19.76 -41.28,31.27 -68.55,34.28 -4.25,0.75 -8.76,1.25 -13.26,1.25 -10.26,0 -19.77,-1.5 -28.52,-4.5 -6.76,-2.25 -12.76,-5.75 -18.77,-11.01l-18.76 34.28c-17.51,34.53 -26.52,64.3 -26.52,89.57 0,7.25 0.75,14.26 2.25,20.77 4.25,17.01 15.01,29.52 32.02,37.53 16.26,8.76 35.28,13.51 57.29,14.26 70.56,-1.5 152.37,-32.02 244.94,-91.57 28.02,-18.27 65.05,-45.29 111.59,-80.56l56.3 -43.04c21.51,-15.52 40.53,-29.27 57.54,-41.03l0 0zm-436.84 -32.03c-7.51,4.51 -15.51,10.76 -24.27,18.77 -9.51,8.76 -19.01,19.76 -28.77,33.02l0 1 2.25 2.25c1.5,0.75 3.25,1.75 5.5,3.25 3.75,0.75 8.01,1 13.26,1l7.75 0c16.01,-2.25 29.78,-8.76 40.78,-19.76 8.76,-9.51 15.01,-21.77 18.76,-36.53 0,-4.51 -0.75,-8.01 -2.25,-11.01 -1.51,-2.25 -3.75,-3.25 -6.51,-3.25 -2.25,0 -4.76,0.75 -7.76,2.25l-6.75 2.25 -5.51 3.25 -6.5 3.5z"/>
  </g>
  <g>
   <path class="fil1" d="M4131.32 4134.24c0,-0.75 0.25,-1 1,-1 0.75,0 2.5,1.51 5.5,4.51 3.75,3 7.26,7 11.01,12.26 3.76,5.25 6.26,10 7.76,14.26 1.51,3 2.25,4.76 2.25,5.5 0,1.5 -0.5,2.25 -1.25,2.25 -144.87,99.33 -285.73,171.64 -422.58,217.42 -32.28,11.01 -73.31,22.77 -122.59,35.28l-4.5 16.52c-11.01,36.77 -29.78,65.8 -56.3,87.06 -27.27,22.02 -59.3,33.78 -96.07,35.28l-1.01 -0c-14.01,-1.5 -26.02,-6.26 -36.53,-14.26 -11.01,-8.25 -18.27,-19.51 -22.02,-34.28 -0.75,-5.25 -1.25,-10.76 -1.25,-16.51 0,-6.51 0.75,-13.51 2.25,-21.02 3,-12.51 9.51,-23.27 19.76,-32.02 7.25,-7.51 16.26,-13.51 26.52,-18.77 6.51,-3.75 15.51,-7.75 26.52,-12.26 12.51,-4.51 29.78,-9.51 51.79,-15.51l22.01 -5.5 0 -7.76c-0.75,-11.01 -2.5,-23.27 -5.5,-36.53 -2.25,-8.76 -6.26,-21.77 -12.26,-38.53l-6.75 -21.02 -5.5 -22.02c-11.01,-39.78 -16.52,-74.56 -16.52,-104.83l0 -14.26c1.51,-34.52 8.51,-65.8 21.02,-93.82 9.51,-24.27 22.02,-44.78 37.53,-61.8 12.51,-13.26 26.02,-23.77 40.78,-32.03 11.01,-6 21.26,-10.25 30.77,-13.26 7.25,-1.5 14.26,-2.25 21.02,-2.25 1.5,-0.75 3,-1 4.5,-1 1.5,0 3,0.5 4.51,1l5.5 0c11.01,0 21.02,1.76 29.78,5.51 11.01,3.75 19.76,10.25 26.52,19.76 7.25,8.76 11.76,18.77 13.26,29.78 0.75,4.5 1.25,9.26 1.25,14.26 0,5.25 -0.5,10.26 -1.25,15.51 -2.25,17.01 -8.76,33.53 -19.77,49.54 -7.51,10.26 -18.51,22.02 -33.03,35.28 -14.01,13.26 -29.77,27.27 -47.54,42.03l-48.54 38.53c3,16.26 7.26,35.03 13.26,56.3l11.01 41.78c4.5,17.01 7.51,32.78 8.76,47.54 0.75,10.26 1.25,21.27 1.25,33.03 39.78,-11.01 73.81,-21.27 102.58,-31.02 132.35,-42.79 268.96,-112.59 411.07,-208.92l0 0zm-614.74 353.03c11.01,-11.76 18.77,-26.52 23.27,-44.03l-5.5 1c-20.52,6.01 -36.53,10.76 -47.54,14.26 -17.51,6.5 -29.78,13.26 -36.53,19.77 -3.75,3.75 -6.26,7.75 -7.76,12.26 -0.75,2.25 -1.25,4.51 -1.25,6.51 0,2.25 0.5,4.5 1.25,6.5 0.75,3.75 2.25,6.76 4.51,8.76 2.25,1.5 5.25,2.5 8.76,3.25 25.27,-1 45.53,-10.75 60.79,-28.27l0 0zm121.35 -475.62l-10.01 10.01c-3.75,3.75 -7.51,7.76 -11.01,12.26 -8.76,11.76 -16.51,26.02 -23.02,43.04 -6.51,18.26 -10.76,38.53 -12.01,60.8 28.02,-22.01 50.04,-40.28 66.05,-55.29 24.27,-22.77 37.03,-42.28 38.53,-58.54 0.75,-3 1.25,-5.75 1.25,-8.76 0,-6.5 -1.5,-11.76 -4.5,-15.51 -3,-3.75 -8.01,-6.01 -15.51,-6.75 -2.25,0 -4.76,1.25 -7.76,3.25l-3.25 2.25 -4.5 3.25c-4.24,3 -9,6.51 -14.26,10.01z"/>
  </g>
  <g>
   <path class="fil1" d="M4568.16 4300.61c-36.78,25.02 -71.81,44.03 -104.83,57.29 -41.28,16.26 -81.31,24.27 -120.34,24.27l-1 0c-28.77,-0.75 -56.3,-7.26 -82.82,-19.77 -35.28,36.03 -73.56,55.04 -114.84,57.29l-1 0c-19.76,0 -36.53,-4 -49.54,-12.01 -17.01,-9.51 -28.02,-23.77 -33.03,-43.03 -4.5,-14.01 -6.5,-29.02 -6.5,-45.29 0,-6 0.75,-12.51 2.25,-19.76l2.25 -18.76c4.51,-22.02 10.76,-43.29 18.77,-64.05 6.01,-16.01 12.76,-32.02 21.02,-47.29 8,-16.26 17.51,-27.27 28.77,-33.03 4.5,-2.25 8.76,-3.25 13.26,-3.25l3.25 0c2.25,-11.76 5.25,-23.27 8.76,-34.28 8.76,-25.77 22.52,-45.53 40.78,-59.54 16.26,-12.51 34.28,-18.77 54.04,-18.77 6.76,0 13.26,0.75 19.77,2.25 28.02,2.25 49.54,14.26 65.05,36.53 14.01,18.27 21.77,41.28 23.27,68.3 0.75,5.26 1,10.26 1,15.51 0,34.53 -8.5,71.31 -25.27,110.34 -10.25,25.77 -23.52,49.54 -39.78,71.8 17.76,6.51 36.53,10.26 56.3,11.01 59.55,-1.5 124.6,-26.02 195.15,-74.06 24.27,-16.76 54.04,-39.78 89.32,-68.3l45.04 -35.28 32.02 -25.52c2.25,0 7.76,5.5 16.52,16.51 8,11.01 12.26,17.51 12.26,19.77l0 1 -31.02 24.27 -45.28 36.53c-35.78,28.77 -67.06,51.79 -93.58,69.31l0 0zm-449.1 66.3c5.25,3.75 12.76,6.01 23.27,6.5 25.77,-1.5 51.29,-13.51 77.06,-36.53 -30.77,-25.77 -53.04,-58.8 -66.05,-99.33 -6.75,9.51 -12.26,18.27 -16.51,26.52 -6.76,11.76 -12.26,22.77 -16.52,33.03 -7.51,17.01 -11.01,31.77 -11.01,44.03 0,3 0.25,6.01 1,8.76 0.75,7.75 3.76,13.51 8.76,17.01l0 0zm77.31 -252.7c-5.26,14.01 -7.76,29.02 -7.76,45.29 0,5.25 0.25,10.76 1.25,16.51l0 5.5c1.5,12.51 3.75,24.27 6.51,35.28 10.26,35.28 28.27,63.55 54.04,85.07 15.51,-20.52 28.02,-42.53 37.53,-66.3 14.01,-33.77 21.02,-65.05 21.02,-93.82l0 -11.01c-1.5,-18.27 -6.01,-32.78 -13.26,-43.04 -8.76,-11.01 -20.52,-17.26 -35.28,-18.76 -3.75,-0.75 -7,-1 -10,-1 -11.01,0 -21.02,3 -29.78,8.76 -11.01,9 -19.26,21.52 -24.27,37.53z"/>
  </g>
  <g>
   <path class="fil1" d="M5503.64 4136.49l1 0c3,0 8.51,5.5 16.52,16.51 7.25,9.51 11.01,16.26 11.01,19.77 0,0.75 -0.25,1.5 -1,2.25 -22.01,16.26 -47.04,35.78 -75.06,58.55l-145.61 127.85 -73.81 64.05c-61.05,52.29 -112.09,93.32 -153.37,123.6 -31.02,22.02 -58.8,40.03 -83.81,54.04 -19.02,11.01 -34.53,18.76 -46.29,23.27 -19.77,7.25 -37.78,11.76 -54.04,13.26l-2.25 -1 -1 1c-17.02,-0.75 -31.28,-2.5 -43.04,-5.5 -16.26,-4.51 -30.52,-11.76 -43.03,-22.02 -13.26,-11.01 -22.52,-25.02 -27.52,-41.78 -3.75,-13.26 -5.5,-28.27 -5.5,-45.28 1.5,-24.27 6.26,-49.79 14.26,-76.31 3,-11.01 6.51,-22.52 11.01,-34.28l12.26 -33.03c19.77,-49.29 43.29,-99.33 70.56,-150.12l1 -2.25c6.75,-12.51 14.01,-25.77 22.01,-39.78l2.25 -4.51c8.01,-16.01 14.26,-30.77 18.76,-44.03 4.51,-14.01 6.76,-25.77 6.76,-35.28l0 -6.51c-1.5,-9.51 -5.5,-16.26 -12.26,-19.76 -8.25,-3.76 -19.27,-7.51 -33.02,-11.01l-31.02 -10c-50.79,56.04 -107.08,106.33 -168.88,151.12l-1.26 -0c-2.25,0 -7.26,-5.5 -15.51,-16.52 -7.26,-11.01 -11.01,-18.01 -11.01,-21.02l0 -1c54.54,-39.03 104.58,-82.82 150.12,-131.35 -22.77,-13.26 -39.03,-29.77 -48.54,-49.79 -8,-16.26 -12.01,-34.28 -12.01,-54.04 0,-8.01 0.75,-16.52 2.25,-25.27 3,-25.02 10.76,-48.79 23.27,-71.81 13.26,-24.27 30.77,-43.03 53.04,-56.29 20.52,-13.26 43.53,-20.52 68.3,-22.02l7.75 -0 1 1c12.51,0.75 24.02,3 34.28,6.75 18.26,6.51 31.27,18.02 38.53,34.28 4.5,9.51 6.75,20.27 6.75,32.02 0,5.26 -0.5,10.26 -1.25,15.51 -1.5,13.26 -4.76,26.02 -10.01,38.53 -14.76,36.03 -40.53,77.56 -77.31,124.6l-5.5 6.76 26.52 8.76 17.76 5.5 5.5 2.25c11.01,5.25 20.52,10.76 28.77,16.52 12.51,8.76 22.02,19.76 28.77,33.02l6.75 14.26 1 1 2.25 7.76c0.75,2.25 1,4 1,5.5 0.75,3 1.25,6.26 1.25,10.01l-1.25 7.76c-0.75,8.76 -1.75,18.27 -3.25,28.77 -5.25,23.52 -14.01,46.29 -26.52,68.3 -5.25,9.51 -12.51,21.77 -22.02,36.53l-12.26 19.77 -14.26 22.02c-24.27,39.03 -44.03,72.81 -59.55,101.58 -11.76,22.77 -21.02,42.28 -27.52,58.54 -8.76,22.02 -14.26,42.28 -16.51,60.8 -0.75,3.75 -1.25,7.26 -1.25,11.01 0,16.01 4.5,28.77 13.26,37.53 11.01,10.26 29.52,15.51 55.29,15.51 11.01,-0.75 24.27,-4 39.78,-10.01 9.51,-3.75 23.27,-10.26 40.78,-19.77 22.77,-13.26 48.79,-30.52 78.31,-51.79 39.78,-28.77 89.82,-68.8 150.12,-120.34l74.06 -64.05 109.34 -96.07 37.53 -32.03c27.26,-23.52 53.04,-44.29 76.55,-61.8l0 0zm-659.76 -134.61l2.25 1 16.51 -18.77c33.77,-43.53 57.04,-81.06 69.55,-112.59 6.01,-14.01 8.76,-25.77 8.76,-35.28 0,-5.75 -1,-10.76 -3.25,-14.26 -1.5,-4.51 -5.5,-7.76 -12.26,-10.01 -6.5,-3 -15.01,-4.51 -25.27,-4.51 -36.03,3 -63.3,21.02 -81.57,54.04 -9.51,17.76 -15.51,36.03 -17.51,55.29 -0.75,6.76 -1,12.51 -1,17.76 0,13.26 2.25,24.52 6.5,34.28 6.51,13.01 19.02,24.02 37.28,33.03z"/>
  </g>
  <path class="fil1" d="M6313.52 4135.23l1 0c3.75,0 9.51,5.26 17.76,15.51 6.5,9.51 10,16.26 10,19.77 0,0.75 -0.25,1.5 -1,2.25 -39.03,29.27 -73.56,56.29 -103.83,80.56l-81.56 65.05c-70.56,57.29 -126.6,100.83 -167.63,130.1 -67.05,48.54 -127.6,85.57 -182.14,111.34 -73.56,35.28 -142.36,54.04 -206.41,56.3l-14.26 0c-33.77,-5.26 -61.8,-18.77 -83.81,-40.78 -19.77,-18.27 -34.53,-43.78 -44.03,-76.06 -7.25,-27.27 -11.01,-59.3 -11.01,-96.07 0,-17.01 0.75,-35.03 2.25,-54.04 8.26,-70.56 27.52,-153.62 58.55,-249.44 41.28,-123.6 97.83,-256.95 169.88,-400.56 32.28,-64.05 65.55,-125.85 99.33,-185.4 -180.14,41.78 -324.75,71.8 -433.59,89.32 -54.29,8.76 -103.33,15.01 -146.61,18.76 -36.78,3 -70.56,4.51 -101.58,4.51 -17.51,0 -34.28,-0.5 -49.54,-1.25 -33.03,-3 -58.8,-7.25 -77.31,-13.26 -31.77,-9.51 -56.29,-22.77 -74.06,-39.78 -22.77,-21.27 -34.28,-48.54 -34.28,-81.56l0 -5.51c0,-25.77 4.5,-50.79 13.26,-75.05 2.25,-6.76 6.51,-10.01 13.26,-10.01 4.51,0 9.26,1.25 14.26,3.25 12.51,5.25 18.76,10.76 18.76,16.51 0,1.5 -0.5,3 -1,4.51 -8,22.77 -12.26,43.03 -12.26,60.8 0,22.77 7,40.78 21.02,54.04 11.76,11.76 29.77,21.02 54.04,27.52 15.51,5.25 37.78,9.26 67.3,12.26 13.26,0.75 27.52,1 43.04,1 65.55,0 147.12,-7.76 244.94,-23.27 109.59,-18.27 267.46,-51.54 473.37,-99.33 26.52,-44.79 54.54,-89.32 83.81,-133.6 47.79,-74.31 96.33,-143.36 145.62,-207.41 68.3,-89.07 133.85,-164.13 196.4,-225.18 14.76,-14.76 28.27,-27.27 40.78,-37.53 17.01,-14.01 32.78,-25.02 47.54,-33.03 19.01,-11.01 35.03,-16.51 47.29,-16.51 11.01,0 19.52,4.5 25.27,13.26 3,6.01 4.51,11.76 4.51,17.51 0,11.76 -5.75,24.27 -17.51,37.53 -6.51,8.26 -18.02,19.52 -34.28,34.28l-22.02 19.77c-8.76,8.76 -17.01,16.51 -24.27,23.27 -59.55,57.29 -123.85,129.85 -193.15,217.42 -48.54,61.8 -97.33,128.85 -146.62,200.91 -14.76,21.27 -29.02,42.53 -43.03,64.05l140.11 -32.02 141.11 -30.77c106.58,-22.77 201.91,-40.03 285.73,-51.79 55.79,-7.26 105.58,-12.26 148.86,-14.26 18.27,-0.75 35.78,-1 51.79,-1 37.53,0 70.56,2.25 99.33,6.5 27.27,4.51 53.04,12.51 77.31,24.27 28.77,13.26 50.04,32.28 64.05,57.29 10.25,19.76 15.51,43.28 15.51,70.56l0 14.26 -3.25 19.77c-0.75,8.26 -2.25,14.76 -4.5,19.77l-4.51 18.76 -6.75 18.76c-2.25,6.01 -6.51,8.76 -13.26,8.76 -3.75,0 -8.5,-1 -14.26,-3.25 -11.76,-5.25 -17.51,-11.01 -17.51,-17.51 0,-1.51 0.25,-3 1,-4.51l5.5 -16.51 4.5 -15.51 3.25 -16.52 2.25 -16.51 0 -10.01c0,-19.01 -3.25,-35.03 -10,-47.54 -8.01,-16.01 -22.52,-29.02 -43.04,-38.53 -19.77,-9.51 -41.28,-16.26 -64.05,-19.77 -26.52,-4.5 -57.3,-6.75 -92.57,-6.75 -15.51,0 -31.53,0.5 -48.54,1.25 -42.03,2.25 -90.07,7.01 -144.62,14.26 -83.81,11.76 -179.39,29.02 -286.97,51.79l-143.36 32.02 -143.36 33.03 -37.53 7.76c-50.04,78.81 -97.33,158.37 -142.36,239.44 -76.56,139.86 -136.11,267.71 -178.64,384.05 -33.03,91.32 -54.04,170.64 -62.8,238.44 -3,25.02 -4.5,47.04 -4.5,66.05 0.75,25.77 3.75,48.29 9.01,67.3 6.76,24.27 16.76,43.28 31.02,57.29 14.76,14.76 34.53,24.27 59.55,28.77l1.25 -0.01c58.8,-1.5 122.85,-18.76 191.9,-51.79 52.29,-25.02 110.59,-60.8 175.39,-107.08 39.03,-28.77 93.82,-71.56 164.38,-129.1l81.56 -65.05c30.52,-24.52 65.8,-51.54 105.58,-81.07z"/>
  <g>
   <path class="fil1" d="M6884.97 4134.24c0,-0.75 0.25,-1 1,-1 0.75,0 2.5,1.51 5.5,4.51 3.75,3 7.25,7 11.01,12.26 3.76,5.25 6.26,10 7.76,14.26 1.5,3 2.25,4.76 2.25,5.5 0,1.5 -0.5,2.25 -1.25,2.25 -144.86,99.33 -285.72,171.64 -422.58,217.42 -32.28,11.01 -73.31,22.77 -122.34,35.28l-4.51 16.52c-11.01,36.77 -29.77,65.8 -56.3,87.06 -27.27,22.02 -59.3,33.78 -96.07,35.28l-1 -0c-14.01,-1.5 -26.02,-6.26 -36.53,-14.26 -11.01,-8.25 -18.26,-19.51 -22.01,-34.28 -0.75,-5.25 -1,-10.76 -1,-16.51 0,-6.51 0.75,-13.51 2.25,-21.02 3,-12.51 9.51,-23.27 19.76,-32.02 7.51,-7.51 16.26,-13.51 26.52,-18.77 6.5,-3.75 15.51,-7.75 26.52,-12.26 12.51,-4.51 29.77,-9.51 51.79,-15.51l22.01 -5.5 0 -7.76c-0.75,-11.01 -2.5,-23.27 -5.5,-36.53 -2.25,-8.76 -6.25,-21.77 -12.26,-38.53l-6.76 -21.02 -5.5 -22.02c-11.01,-39.78 -16.51,-74.56 -16.51,-104.83l0 -14.26c1.5,-34.52 8.5,-65.8 21.02,-93.82 9.51,-24.27 22.01,-44.78 37.53,-61.8 12.51,-13.26 26.02,-23.77 40.78,-32.03 11.01,-6 21.27,-10.25 30.77,-13.26 7.25,-1.5 14.26,-2.25 21.02,-2.25 1.5,-0.75 3,-1 4.5,-1 1.51,0 3,0.5 4.51,1l5.5 0c11.01,0 21.02,1.76 29.78,5.51 11.01,3.75 19.77,10.25 26.52,19.76 7.51,8.76 11.76,18.77 13.26,29.78 0.75,4.5 1.25,9.26 1.25,14.26 0,5.25 -0.5,10.26 -1.25,15.51 -2.25,17.01 -8.76,33.53 -19.76,49.54 -7.26,10.26 -18.27,22.02 -33.03,35.28 -14.01,13.26 -29.78,27.27 -47.54,42.03l-48.54 38.53c3,16.26 7.25,35.03 13.26,56.3l11.01 41.78c4.51,17.01 7.25,32.78 8.76,47.54 0.75,10.26 1.25,21.27 1.25,33.03 39.78,-11.01 73.81,-21.27 102.58,-31.02 131.86,-42.79 268.71,-112.59 410.57,-208.92l0 0zm-614.48 353.03c11.01,-11.76 18.76,-26.52 23.27,-44.03l-5.51 1c-20.52,6.01 -36.53,10.76 -47.54,14.26 -17.76,6.5 -29.77,13.26 -36.53,19.77 -3.75,3.75 -6.25,7.75 -7.76,12.26 -0.75,2.25 -1,4.51 -1,6.51 0,2.25 0.25,4.5 1,6.5 0.75,3.75 2.25,6.76 4.51,8.76 2.25,1.5 5.25,2.5 8.76,3.25 25.27,-1 45.28,-10.75 60.8,-28.27l0 0zm121.34 -475.62l-10 10.01c-3.75,3.75 -7.51,7.76 -11.01,12.26 -8.76,11.76 -16.51,26.02 -23.02,43.04 -6.75,18.26 -10.76,38.53 -12.26,60.8 28.02,-22.01 50.04,-40.28 66.3,-55.29 24.27,-22.77 37.03,-42.28 38.53,-58.54 0.75,-3 1,-5.75 1,-8.76 0,-6.5 -1.5,-11.76 -4.51,-15.51 -3,-3.75 -8.01,-6.01 -15.26,-6.75 -2.25,0 -4.75,1.25 -7.76,3.25l-3.25 2.25 -4.51 3.25c-4.25,3 -9,6.51 -14.26,10.01z"/>
  </g>
 </g>
</svg>
