<svg width="528" height="338" viewBox="0 0 528 338" fill="none" xmlns="http://www.w3.org/2000/svg">
<path d="M250.554 0C196.43 0 152.571 43.9093 152.571 98.0632C152.571 152.217 196.444 196.126 250.554 196.126C304.663 196.126 348.536 152.217 348.536 98.0632C348.536 43.9093 304.677 0 250.554 0ZM314.984 99.0637C314.871 99.7965 314.646 100.543 314.111 101.121C313.35 101.924 312.604 102.727 311.83 103.517C310.239 105.123 308.634 106.715 307.043 108.308C305.466 109.886 303.874 111.45 302.298 113.028C301.185 114.142 300.073 115.269 298.961 116.396C297.736 117.622 296.525 118.848 295.3 120.074C294.047 121.342 292.794 122.597 291.526 123.865C290.02 125.373 288.499 126.866 286.993 128.374C285.359 130.009 283.74 131.643 282.107 133.278C280.586 134.8 279.037 136.308 277.517 137.83C275.996 139.351 274.475 140.887 272.955 142.409C271.378 143.988 269.787 145.566 268.224 147.144C266.394 148.976 264.577 150.808 262.761 152.64C261.17 154.232 259.565 155.825 257.96 157.417C256.383 158.995 254.763 160.545 253.257 162.18C252.215 163.307 250.962 164.026 249.526 164.251C247.146 164.632 244.95 164.181 243.204 162.293C242.035 161.024 240.782 159.827 239.557 158.601C238.388 157.417 237.234 156.247 236.065 155.064C234.742 153.725 233.404 152.4 232.095 151.062C230.954 149.892 229.828 148.708 228.687 147.553C226.913 145.749 225.111 143.959 223.337 142.156C221.014 139.802 218.69 137.435 216.367 135.082C214.199 132.883 212.017 130.713 209.848 128.515C207.539 126.176 205.244 123.823 202.935 121.497C200.738 119.271 198.514 117.059 196.317 114.818C194.107 112.592 191.924 110.351 189.728 108.11C188.616 106.983 187.503 105.87 186.391 104.743C186.222 104.573 185.969 104.433 186.18 104.01H186.856C197.585 104.01 208.314 104.01 219.028 104.01C219.451 104.01 219.775 104.108 220.084 104.433C221.394 105.785 222.717 107.11 224.055 108.435C225.195 109.562 226.35 110.675 227.49 111.802C228.349 112.648 229.18 113.508 230.025 114.367C231.194 115.565 232.376 116.763 233.559 117.946C235.178 119.581 236.811 121.202 238.445 122.836C241.669 126.063 244.907 129.304 248.132 132.531C248.357 132.757 248.639 132.94 248.85 133.109C249.934 132.869 250.539 132.052 251.229 131.376C254.961 127.655 258.678 123.921 262.409 120.201C265.591 117.03 268.773 113.86 271.955 110.675C274.56 108.068 277.165 105.447 279.77 102.826C281.487 101.107 283.205 99.3878 284.923 97.6545C284.937 97.6404 284.965 97.6264 284.979 97.5982C285.12 97.415 285.444 97.26 285.204 96.9781C284.979 96.7104 284.754 96.95 284.543 97.0768C282.797 98.1196 281.065 99.1623 279.319 100.205C277.334 101.389 275.348 102.558 273.377 103.742C271.913 104.616 270.477 105.518 269.012 106.391C267.703 107.18 266.379 107.941 265.07 108.731C263.507 109.675 261.944 110.633 260.381 111.577C258.861 112.493 257.326 113.395 255.791 114.297C254.566 115.029 253.341 115.762 252.102 116.467C251.103 117.03 250.004 117.115 248.892 117.03C247.977 116.96 247.104 116.706 246.372 116.157C245.752 115.706 245.175 115.184 244.612 114.649C243.316 113.395 242.035 112.112 240.754 110.844C239.557 109.661 238.36 108.477 237.163 107.307C235.91 106.081 234.657 104.841 233.418 103.615C232.63 102.84 231.813 102.107 231.067 101.276C230.475 100.614 230.18 99.7824 229.94 98.9228C229.448 97.1613 229.321 95.3999 230.067 93.6948C230.419 92.8916 230.926 92.1729 231.391 91.4261C232.334 89.9042 233.277 88.4105 234.221 86.8886C235.08 85.5358 235.938 84.1689 236.783 82.8161C237.501 81.6747 238.219 80.5333 238.938 79.3778C240.317 77.1654 241.697 74.953 243.077 72.7406C244.781 70.021 246.484 67.3013 248.188 64.5816C248.681 63.7925 249.174 63.0175 249.652 62.2143C249.878 61.8479 250.075 61.4674 249.807 61.0165C249.371 60.9883 249.089 61.2137 248.822 61.4956C247.695 62.6652 246.569 63.8489 245.428 65.0185C243.978 66.5122 242.528 68.0059 241.078 69.4996C239.782 70.8242 238.501 72.1629 237.206 73.5016C235.713 75.0376 234.221 76.5595 232.742 78.0814C230.292 80.6037 227.857 83.1402 225.421 85.6626C223.745 87.3959 222.056 89.101 220.38 90.8342C220.084 91.1442 219.775 91.2851 219.324 91.2711C218.043 91.2429 216.762 91.2711 215.48 91.2711C211.538 91.2288 207.595 91.1724 203.667 91.1161C200.555 91.0738 197.444 91.0174 194.332 90.961C192.107 90.9188 189.869 90.8624 187.644 90.806C187.419 90.806 187.194 90.7356 186.799 90.6792C187.067 90.3833 187.208 90.2283 187.362 90.0733C189.263 88.1427 191.164 86.2122 193.079 84.2957C195.318 82.0552 197.57 79.8428 199.795 77.6163C202.372 75.0376 204.92 72.4447 207.497 69.8801C209.341 68.0341 211.2 66.2022 213.044 64.3703C215.311 62.1015 217.578 59.8046 219.845 57.5359C222.013 55.3658 224.182 53.2097 226.35 51.0537C229.265 48.1509 232.179 45.248 235.094 42.3451C236.459 40.9783 237.839 39.6396 239.205 38.2727C240.374 37.1031 241.5 35.9053 242.683 34.7357C243.359 34.0734 244.034 33.3688 244.809 32.8474C245.879 32.1288 247.09 31.706 248.413 31.7624C248.794 31.7765 249.174 31.7624 249.54 31.7624C250.047 31.7624 250.511 31.8328 251.004 32.016C251.821 32.2979 252.539 32.6783 253.144 33.3265C254.665 34.9612 256.242 36.5394 257.791 38.1459C258.847 39.245 259.903 40.3582 260.959 41.4715C263.817 44.4307 266.675 47.3899 269.533 50.3632C270.984 51.857 272.363 53.4352 273.898 54.8303C276.123 56.8735 276.77 59.4382 276.686 62.2988C276.658 63.5529 276.39 64.7507 275.7 65.7935C275.208 66.5404 274.588 67.2168 274.011 67.9072C271.505 70.951 268.984 73.9807 266.492 77.0245C264.957 78.8846 263.465 80.7728 261.944 82.6329C259.776 85.268 257.594 87.8891 255.425 90.5242C255.186 90.806 255.003 91.1442 254.834 91.4683C254.763 91.6093 254.834 91.8206 254.834 92.0038C255.017 91.9615 255.242 91.9897 255.383 91.8911C255.848 91.5529 256.27 91.1583 256.721 90.7919C258.157 89.5801 259.593 88.3682 261.043 87.1563C263.014 85.4935 265 83.8448 266.985 82.182C268.773 80.6883 270.589 79.2087 272.378 77.715C274.25 76.1508 276.095 74.5726 277.953 73.0225C278.601 72.4729 279.263 71.9374 279.939 71.4019C280.952 70.6128 282.177 70.4437 283.374 70.2183C284.205 70.0633 285.064 69.8942 285.894 69.9646C286.95 70.0492 287.992 70.3733 289.034 70.6128C289.809 70.796 290.47 71.2188 291.034 71.7683C292.216 72.9238 293.385 74.1075 294.554 75.2771C295.652 76.3763 296.778 77.4613 297.876 78.5464C299.622 80.2796 301.368 82.0129 303.128 83.7321C305.395 85.9726 307.676 88.1991 309.943 90.4397C311.266 91.7502 312.59 93.0466 313.899 94.3712C314.125 94.5967 314.322 94.8785 314.449 95.1744C314.97 96.4145 315.279 97.7109 315.068 99.0637H314.984Z" fill="white"/>
<path d="M174.817 233.018H209.173C218.564 233.018 226.167 235.752 230.799 240.388C234.249 243.84 236.15 248.237 236.15 253.479V253.719C236.15 265.02 228.786 270.727 221.999 273.461C231.982 276.082 240.782 281.789 240.782 293.33V293.57C240.782 307.492 228.899 316.285 210.947 316.285H174.817V233.018ZM208.454 271.446C220.929 271.446 229.856 265.372 229.856 254.31V254.071C229.856 244.911 222.366 238.725 209.06 238.725H181.013V271.446H208.469H208.454ZM211.186 310.578C225.449 310.578 234.488 304.04 234.488 293.57V293.33C234.488 283.1 225.576 277.153 209.173 277.153H180.999V310.578H211.186Z" fill="white"/>
<path d="M249.23 255.621H255.059V272.869C259.818 262.047 269.914 254.198 281.924 254.663V261.088H281.333C267.309 261.088 255.059 271.671 255.059 291.428V316.285H249.23V255.621Z" fill="white"/>
<path d="M282.515 286.186V285.946C282.515 268.937 295.708 254.184 313.773 254.184C331.837 254.184 344.791 268.698 344.791 285.706V285.946C344.791 302.954 331.598 317.708 313.533 317.708C295.469 317.708 282.515 303.194 282.515 286.186ZM338.497 286.186V285.946C338.497 271.319 327.557 259.651 313.533 259.651C299.51 259.651 288.809 271.432 288.809 285.706V285.946C288.809 300.573 299.749 312.241 313.773 312.241C327.796 312.241 338.497 300.46 338.497 286.186Z" fill="white"/>
<path d="M352.648 229.439H358.477V294.514L396.042 255.607H403.772L377.26 282.494L404.603 316.285H397.239L373.233 286.665L358.491 301.531V316.285H352.662V229.439H352.648Z" fill="white"/>
<path d="M404.955 286.073V285.833C404.955 268.233 417.317 254.184 433.72 254.184C450.124 254.184 461.528 267.979 461.528 285.946C461.528 287.017 461.528 287.369 461.402 288.327H411.122C412.192 303.434 423.005 312.241 434.889 312.241C444.28 312.241 450.701 308.084 455.685 302.729L459.726 306.294C453.545 312.96 446.294 317.708 434.65 317.708C418.725 317.708 404.927 304.984 404.927 286.059L404.955 286.073ZM455.235 283.099C454.404 270.84 447.392 259.538 433.481 259.538C421.471 259.538 412.206 269.656 411.136 283.099H455.235Z" fill="white"/>
<path d="M468.428 255.621H474.257V272.869C479.016 262.047 489.111 254.198 501.121 254.663V261.088H500.53C486.506 261.088 474.257 271.671 474.257 291.428V316.285H468.428V255.621Z" fill="white"/>
<path d="M0 226.015H16.8538L44.2534 268.613L71.6531 226.015H88.5069V316.116H72.695V251.506L44.2675 293.978H43.7466L15.5866 251.76V316.116H0V226.015Z" fill="white"/>
<path d="M96.7156 332.97L101.996 321.386C104.826 322.936 107.909 323.965 111.134 323.965C115.512 323.965 118.202 322.035 120.778 316.116L92.4775 248.152H109.064L128.353 298.614L145.967 248.152H162.174L135.168 318.047C129.761 331.955 123.721 337.098 112.795 337.098C106.234 337.098 101.475 335.548 96.7156 332.984V332.97Z" fill="white"/>
<path d="M528 219.335C528 225.789 522.931 230.862 516.342 230.862C509.752 230.862 504.613 225.789 504.613 219.335C504.613 212.881 509.823 207.949 516.342 207.949C522.861 207.949 528 213.022 528 219.335ZM507.542 219.335C507.542 224.408 511.287 228.424 516.426 228.424C521.566 228.424 525.1 224.394 525.1 219.392C525.1 214.389 521.425 210.232 516.356 210.232C511.287 210.232 507.542 214.333 507.542 219.321V219.335ZM514.554 225.31H511.921V213.924C512.963 213.713 514.413 213.572 516.286 213.572C518.44 213.572 519.411 213.924 520.242 214.403C520.862 214.882 521.354 215.798 521.354 216.897C521.354 218.151 520.383 219.124 518.989 219.532V219.673C520.101 220.096 520.721 220.928 521.073 222.449C521.425 224.183 521.622 224.873 521.904 225.296H519.059C518.707 224.873 518.51 223.844 518.158 222.52C517.947 221.266 517.257 220.716 515.807 220.716H514.554V225.296V225.31ZM514.624 218.856H515.877C517.342 218.856 518.51 218.363 518.51 217.193C518.51 216.151 517.75 215.46 516.088 215.46C515.399 215.46 514.906 215.53 514.638 215.601V218.87L514.624 218.856Z" fill="white"/>
</svg>
