<?xml version="1.0" encoding="UTF-8"?>
<!DOCTYPE svg PUBLIC "-//W3C//DTD SVG 1.1//EN" "http://www.w3.org/Graphics/SVG/1.1/DTD/svg11.dtd">
<!-- Creator: CorelDRAW 2020 (64-Bit Evaluation Version) -->
<svg xmlns="http://www.w3.org/2000/svg" xml:space="preserve" width="5.1598in" height="3.60591in" version="1.1" style="shape-rendering:geometricPrecision; text-rendering:geometricPrecision; image-rendering:optimizeQuality; fill-rule:evenodd; clip-rule:evenodd"
viewBox="0 0 5296.45 3701.41"
 xmlns:xlink="http://www.w3.org/1999/xlink"
 xmlns:xodm="http://www.corel.com/coreldraw/odm/2003">
 <defs>
  <style type="text/css">
   <![CDATA[
    .fil0 {fill:#FEFEFE;fill-rule:nonzero}
   ]]>
  </style>
 </defs>
 <g id="Layer_x0020_1">
  <metadata id="CorelCorpID_0Corel-Layer"/>
  <g id="_2163572073680">
   <path class="fil0" d="M495.76 3701.41c-64.98,0 -132.1,-31.89 -174.84,-87.15l44.39 -41.57c22.17,26.73 63.88,66.64 130.44,66.64 62.64,0 125.82,-23.95 125.82,-76.97 0,-64.8 -64.3,-64.8 -125.82,-64.8 -101.43,0 -156.62,-37.62 -156.62,-110.06 0,-68.9 65.54,-133.2 156.62,-133.2 64.42,0 120.21,18.16 170.91,67.18l-38.81 45.58c-45.51,-37.01 -78.04,-50.14 -132.1,-50.14 -47.78,0 -87.69,33.01 -87.69,70.02 0,25.63 18.23,49.04 90.52,49.04 148.74,0 186.87,46.18 186.87,126.37 0,85.54 -81.98,139.05 -189.69,139.05z"/>
   <polygon class="fil0" points="776.55,3691.74 837.39,3691.74 837.39,3266.86 776.55,3266.86 "/>
   <polygon class="fil0" points="962.81,3266.77 962.81,3691.65 1260.75,3691.65 1260.75,3629.57 1024.88,3629.57 1024.88,3266.77 "/>
   <polygon class="fil0" points="1585.99,3266.77 1439.59,3622.3 1294.31,3266.77 1227.13,3266.77 1402.53,3691.65 1475.99,3691.65 1654.35,3266.77 "/>
   <path class="fil0" d="M1815.52 3259.39l68.35 0 204.53 432.39 -69.53 0 -27.95 -62.13 -129.22 0c-77.53,0 -119.04,24.51 -128.71,42.13l-10.9 20.01 -67.25 0 183.95 -379.98 -23.27 -52.41zm147.5 307.62l-92.75 -179.46 -94.11 203.37c15.4,-13.13 50.14,-23.9 108.27,-23.9l78.59 0z"/>
   <path class="fil0" d="M2383.4 3691.74l-215.3 0 0 -424.88 215.3 0c71.75,0 125.26,41.5 125.26,116.15 0,36.45 -13.06,67.8 -38.11,83.76 29.55,13.6 58.69,50.12 58.69,108.82 0,84.25 -75.14,116.16 -145.84,116.16zm-153.78 -232.5c25.63,-14.72 52.96,-16.99 80.91,-16.99l72.87 0c38.13,0 63.18,-19.34 63.18,-58.69 0,-40.47 -26.17,-54.08 -63.18,-54.08l-153.78 0 0 129.77zm0 170.42l160.07 0c34.73,0 78.02,-19.35 78.02,-62.15 0,-49.58 -43.29,-62.08 -84.31,-62.08l-72.87 0c-27.39,0 -55.29,3.39 -80.91,17.13l0 107.1z"/>
   <path class="fil0" d="M2823.7 3515.74l-49.58 0c-27.36,0 -54.62,2.82 -80.3,16.5l0 159.44 -62.15 0 0 -424.88 223.37 0c77.48,0 133.83,45.02 133.83,125.28 0,64.42 -36.45,105.99 -97.92,121.38l33.01 67.8c26.78,39.35 36.45,47.8 63.81,47.8l6.27 0 13.62 -0.56 0 63.18c-49.51,0 -99.65,0 -132.1,-67.13l-51.85 -108.81zm-129.89 -45.63c25.68,-14.73 52.41,-16.45 80.3,-16.45l80.92 0c42.75,0 72.31,-19.34 72.31,-64.98 0,-44.41 -31.91,-59.81 -72.31,-59.81l-161.22 0 0 141.23z"/>
   <path class="fil0" d="M3219.57 3259.39l68.36 0 204.52 432.39 -69.51 0 -27.97 -62.13 -129.2 0c-77.54,0 -119.06,24.51 -128.71,42.13l-10.91 20.01 -67.25 0 183.95 -379.98 -23.27 -52.41zm147.5 307.62l-92.75 -179.46 -94.1 203.37c15.4,-13.13 50.12,-23.9 108.25,-23.9l78.59 0z"/>
   <polygon class="fil0" points="3888.33,3266.77 3888.33,3591.57 3615.43,3266.77 3535.06,3266.77 3584.64,3326.68 3584.64,3691.65 3645.55,3691.65 3645.55,3399.54 3889.43,3691.65 3950.95,3691.65 3950.95,3266.77 "/>
   <path class="fil0" d="M4400.35 3368.2c-30.79,-31.91 -75.75,-51.24 -124.23,-51.24 -94.46,0 -167.45,67.74 -167.45,163.44 0,91.65 79.2,158.97 168.01,158.97 55.31,0 104.33,-25.63 135.12,-66.64l38.13 51.78c-41.92,46.87 -103,75.79 -169.81,76.9l-7 0c-127.26,-1.55 -225.36,-101.23 -225.36,-228.33 0,-125.45 107.05,-218.88 228.92,-218.88 63.86,0 121.89,25.75 163.58,67.32l-39.91 46.68z"/>
   <path class="fil0" d="M4740.95 3701.41c-128.71,0 -228.36,-100.26 -228.36,-228.36 0,-125.33 107.05,-218.75 228.92,-218.75 125.94,0 228.36,98.46 228.36,225.52 0,125.33 -105.93,221.59 -228.92,221.59zm0 -384.49c-94.53,0 -167.51,67.76 -167.51,163.46 0,91.76 79.26,158.95 168.06,158.95 91.09,0 166.97,-70.7 166.97,-162.9 0,-93.42 -76.92,-159.51 -167.52,-159.51z"/>
   <path class="fil0" d="M4897.68 1364.84c9.11,-12.5 17.91,-25.25 26.36,-38.37 53.45,-57.16 92,-121.99 115.71,-194.74 28.94,-88.81 43.42,-183.46 43.42,-283.91 0,-127.47 -24.14,-242.33 -72.41,-344.7 -48.36,-102.28 -113.95,-191.21 -196.96,-266.47 -83.08,-75.33 -179.59,-133.22 -289.71,-173.81 -109.98,-40.52 -226.88,-60.91 -350.48,-60.91l-3040.1 0c0,0 -18.5,-1.62 -50.37,-1.92l-21.03 0c-175.17,1.83 -625.96,47.36 -818.59,451.82 -67.37,122.12 -105.81,262.48 -105.81,411.83 0,133.1 15.4,259.96 69.66,372.28 22.36,55.62 97.63,158.05 97.63,158.05 151.56,192.76 384.48,318.51 646.84,325.84l994.87 0c191.21,0 346.24,155.08 346.24,346.36 0,191.23 -155.02,346.18 -346.24,346.18l-1121.93 0c-16.08,0 -31.89,-1.17 -47.42,-3.39l-0.07 0.12c15.34,2.09 30.99,3.27 47,3.27l-824.28 0c40.1,111.17 101.55,212.04 179.34,297.65 163.58,179.95 399.45,292.9 661.69,292.9l3500.95 0 60.65 0c493.75,0 893.81,-400.2 893.81,-893.74 0,-310.64 -158.39,-584.09 -398.77,-744.34zm-2807.86 -243.45l-1075.67 0c-142.39,0 -257.74,-115.41 -257.74,-257.74 0,-142.21 115.36,-257.62 257.74,-257.62l3215.37 0c142.33,0 257.74,115.41 257.74,257.62 0,142.33 -115.41,257.74 -257.74,257.74l-1075.67 0c-199.36,6.7 -383.07,75.92 -531.99,188.51 -148.91,-112.58 -332.57,-181.8 -532.05,-188.51zm2218.41 1290.97l-1421.1 0c34.06,-94.6 52.72,-196.83 52.72,-303.19 0,-85.3 -11.96,-167.64 -34.18,-245.68 62.88,-86.96 165.11,-143.68 280.7,-143.68l1121.86 0c191.23,0 346.31,155.08 346.31,346.36 0,191.23 -155.08,346.18 -346.31,346.18z"/>
  </g>
 </g>
</svg>
